<svg id="Layer_1" data-name="Layer 1" xmlns="http://www.w3.org/2000/svg" viewBox="0 0 100 100"><defs><style>.cls-1{fill:#fff;}</style></defs><title>ceo</title><path class="cls-1" d="M96.76,94.93a.74.74,0,0,1-.74-.74V86.08H4.6v8.11a.74.74,0,0,1-1.47,0V85.35a.74.74,0,0,1,.74-.74h92.9a.74.74,0,0,1,.74.74v8.85A.74.74,0,0,1,96.76,94.93Z"/><path class="cls-1" d="M3.87,86.08a.72.72,0,0,1-.21,0,.74.74,0,0,1-.49-.92L12,55.64a.74.74,0,0,1,1.41.42L4.57,85.56A.74.74,0,0,1,3.87,86.08Z"/><path class="cls-1" d="M96.76,86.08a.74.74,0,0,1-.71-.53L87.21,56.07a.74.74,0,1,1,1.41-.42l8.85,29.49a.74.74,0,0,1-.49.92A.72.72,0,0,1,96.76,86.08Z"/><path class="cls-1" d="M87.92,56.59H12.71a.74.74,0,0,1,0-1.47h75.2a.74.74,0,1,1,0,1.47Z"/><path class="cls-1" d="M12.71,56.59a.74.74,0,0,1-.74-.74V7.2a.74.74,0,0,1,1.47,0V55.86A.74.74,0,0,1,12.71,56.59Z"/><path class="cls-1" d="M87.92,56.59a.74.74,0,0,1-.74-.74V7.2a.74.74,0,0,1,1.47,0V55.86A.74.74,0,0,1,87.92,56.59Z"/><path class="cls-1" d="M87.92,7.93H12.71a.74.74,0,1,1,0-1.47h75.2a.74.74,0,1,1,0,1.47Z"/><path class="cls-1" d="M15.66,53.64a.74.74,0,0,1-.74-.74V10.14a.74.74,0,0,1,1.47,0V52.91A.74.74,0,0,1,15.66,53.64Z"/><path class="cls-1" d="M85,53.64a.74.74,0,0,1-.74-.74V10.14a.74.74,0,0,1,1.47,0V52.91A.74.74,0,0,1,85,53.64Z"/><path class="cls-1" d="M85,10.88H15.66a.74.74,0,1,1,0-1.47H85a.74.74,0,0,1,0,1.47Z"/><path class="cls-1" d="M7.7,83.14a.72.72,0,0,1-.21,0A.74.74,0,0,1,7,82.19l7.08-23.59a.74.74,0,0,1,1.41.42L8.41,82.61A.74.74,0,0,1,7.7,83.14Z"/><path class="cls-1" d="M92.93,83.14a.74.74,0,0,1-.71-.53L85.15,59a.74.74,0,1,1,1.41-.42l7.08,23.59a.73.73,0,0,1-.49.92A.72.72,0,0,1,92.93,83.14Z"/><path class="cls-1" d="M85.85,59.54H14.92a.74.74,0,1,1,0-1.47H85.85a.74.74,0,1,1,0,1.47Z"/><path class="cls-1" d="M10.59,83.14l-.2,0a.74.74,0,0,1-.51-.91l5.79-20.64a.74.74,0,1,1,1.42.4L11.3,82.6A.74.74,0,0,1,10.59,83.14Z"/><path class="cls-1" d="M36.31,83.14H36.2a.74.74,0,0,1-.63-.84l2.95-20.65a.74.74,0,1,1,1.46.21L37,82.51A.74.74,0,0,1,36.31,83.14Z"/><path class="cls-1" d="M64.32,83.14a.74.74,0,0,1-.73-.63L60.64,61.86a.74.74,0,1,1,1.46-.21L65.05,82.3a.74.74,0,0,1-.63.84Z"/><path class="cls-1" d="M90.06,83.14a.74.74,0,0,1-.71-.54L83.66,61.94a.74.74,0,0,1,1.42-.39l5.68,20.66a.73.73,0,0,1-.52.9Z"/><path class="cls-1" d="M85.85,68.39H14.73a.74.74,0,1,1,0-1.47H85.85a.74.74,0,1,1,0,1.47Z"/><path class="cls-1" d="M88,75.76H12.68a.74.74,0,1,1,0-1.47H88a.74.74,0,1,1,0,1.47Z"/><path class="cls-1" d="M90.06,83.14H10.59a.74.74,0,1,1,0-1.47H90.06a.74.74,0,1,1,0,1.47Z"/><path class="cls-1" d="M84.38,62.49h-68a.74.74,0,0,1,0-1.47h68a.74.74,0,0,1,0,1.47Z"/><path class="cls-1" d="M73.17,66.85c-2.1,0-3.69-1-3.69-2.21s1.58-2.21,3.69-2.21,3.69,1,3.69,2.21S75.27,66.85,73.17,66.85Zm0-2.95c-1.43,0-2.21.55-2.21.74s.78.74,2.21.74,2.21-.55,2.21-.74S74.6,63.91,73.17,63.91Z"/><path class="cls-1" d="M74.64,73.55c-2.1,0-3.69-1-3.69-2.21s1.58-2.21,3.69-2.21,3.69,1,3.69,2.21S76.75,73.55,74.64,73.55Zm0-2.95c-1.43,0-2.21.55-2.21.74s.78.74,2.21.74,2.21-.55,2.21-.74S76.07,70.6,74.64,70.6Z"/><path class="cls-1" d="M76.12,80.92c-2.1,0-3.69-1-3.69-2.21S74,76.5,76.12,76.5s3.69,1,3.69,2.21S78.22,80.92,76.12,80.92Zm0-2.95c-1.43,0-2.21.55-2.21.74s.78.74,2.21.74,2.21-.55,2.21-.74S77.55,78,76.12,78Z"/><path class="cls-1" d="M50.29,66.85c-2.1,0-3.69-1-3.69-2.21s1.58-2.21,3.69-2.21,3.69,1,3.69,2.21S52.39,66.85,50.29,66.85Zm0-2.95c-1.43,0-2.21.55-2.21.74s.78.74,2.21.74,2.21-.55,2.21-.74S51.72,63.91,50.29,63.91Z"/><path class="cls-1" d="M50.29,73.55c-2.1,0-3.69-1-3.69-2.21s1.58-2.21,3.69-2.21,3.69,1,3.69,2.21S52.39,73.55,50.29,73.55Zm0-2.95c-1.43,0-2.21.55-2.21.74s.78.74,2.21.74,2.21-.55,2.21-.74S51.72,70.6,50.29,70.6Z"/><path class="cls-1" d="M50.29,80.92c-2.1,0-3.69-1-3.69-2.21s1.58-2.21,3.69-2.21,3.69,1,3.69,2.21S52.39,80.92,50.29,80.92Zm0-2.95c-1.43,0-2.21.55-2.21.74s.78.74,2.21.74,2.21-.55,2.21-.74S51.72,78,50.29,78Z"/><path class="cls-1" d="M27.44,66.92c-2.1,0-3.69-1-3.69-2.21s1.58-2.21,3.69-2.21,3.69,1,3.69,2.21S29.54,66.92,27.44,66.92Zm0-2.95c-1.43,0-2.21.55-2.21.74s.78.74,2.21.74,2.21-.55,2.21-.74S28.86,64,27.44,64Z"/><path class="cls-1" d="M26,73.55c-2.1,0-3.69-1-3.69-2.21s1.58-2.21,3.69-2.21,3.69,1,3.69,2.21S28.09,73.55,26,73.55Zm0-2.95c-1.43,0-2.21.55-2.21.74s.78.74,2.21.74,2.21-.55,2.21-.74S27.41,70.6,26,70.6Z"/><path class="cls-1" d="M24.51,80.92c-2.1,0-3.69-1-3.69-2.21s1.58-2.21,3.69-2.21,3.69,1,3.69,2.21S26.61,80.92,24.51,80.92Zm0-2.95c-1.43,0-2.21.55-2.21.74s.78.74,2.21.74,2.21-.55,2.21-.74S25.94,78,24.51,78Z"/><path class="cls-1" d="M82,28.58H18.61a.74.74,0,1,1,0-1.47H82a.74.74,0,1,1,0,1.47Z"/><path class="cls-1" d="M82,31.53H18.61a.74.74,0,1,1,0-1.47H82a.74.74,0,1,1,0,1.47Z"/><path class="cls-1" d="M21.56,53.64a.74.74,0,0,1-.74-.74V33.74a.74.74,0,0,1,1.47,0V52.91A.74.74,0,0,1,21.56,53.64Z"/><path class="cls-1" d="M26,53.64a.74.74,0,0,1-.74-.74V33.74a.74.74,0,0,1,1.47,0V52.91A.74.74,0,0,1,26,53.64Z"/><path class="cls-1" d="M30.41,53.64a.74.74,0,0,1-.74-.74V33.74a.74.74,0,0,1,1.47,0V52.91A.74.74,0,0,1,30.41,53.64Z"/><path class="cls-1" d="M34.83,53.64a.74.74,0,0,1-.74-.74V33.74a.74.74,0,0,1,1.47,0V52.91A.74.74,0,0,1,34.83,53.64Z"/><path class="cls-1" d="M39.25,53.64a.74.74,0,0,1-.74-.74V33.74a.74.74,0,0,1,1.47,0V52.91A.74.74,0,0,1,39.25,53.64Z"/><path class="cls-1" d="M43.68,53.64a.74.74,0,0,1-.74-.74V33.74a.74.74,0,0,1,1.47,0V52.91A.74.74,0,0,1,43.68,53.64Z"/><path class="cls-1" d="M48.1,53.64a.74.74,0,0,1-.74-.74V33.74a.74.74,0,0,1,1.47,0V52.91A.74.74,0,0,1,48.1,53.64Z"/><path class="cls-1" d="M52.53,53.64a.74.74,0,0,1-.74-.74V33.74a.74.74,0,0,1,1.47,0V52.91A.74.74,0,0,1,52.53,53.64Z"/><path class="cls-1" d="M56.95,53.64a.74.74,0,0,1-.74-.74V33.74a.74.74,0,0,1,1.47,0V52.91A.74.74,0,0,1,56.95,53.64Z"/><path class="cls-1" d="M61.37,53.64a.74.74,0,0,1-.74-.74V33.74a.74.74,0,0,1,1.47,0V52.91A.74.74,0,0,1,61.37,53.64Z"/><path class="cls-1" d="M65.8,53.64a.74.74,0,0,1-.74-.74V33.74a.74.74,0,0,1,1.47,0V52.91A.74.74,0,0,1,65.8,53.64Z"/><path class="cls-1" d="M70.22,53.64a.74.74,0,0,1-.74-.74V33.74a.74.74,0,0,1,1.47,0V52.91A.74.74,0,0,1,70.22,53.64Z"/><path class="cls-1" d="M74.64,53.64a.74.74,0,0,1-.74-.74V33.74a.74.74,0,0,1,1.47,0V52.91A.74.74,0,0,1,74.64,53.64Z"/><path class="cls-1" d="M79.07,53.64a.74.74,0,0,1-.74-.74V33.74a.74.74,0,0,1,1.47,0V52.91A.74.74,0,0,1,79.07,53.64Z"/><path class="cls-1" d="M26,25.63a.74.74,0,0,1-.74-.74V14.57a.74.74,0,1,1,1.47,0V24.89A.74.74,0,0,1,26,25.63Z"/><path class="cls-1" d="M43.68,15.31H26a.74.74,0,1,1,0-1.47H43.68a.74.74,0,0,1,0,1.47Z"/><path class="cls-1" d="M48.1,25.63a.74.74,0,0,1-.74-.74V19a.74.74,0,0,1,1.47,0v5.9A.74.74,0,0,1,48.1,25.63Z"/><path class="cls-1" d="M48.1,19.73a.74.74,0,0,1-.52-.22l-4.42-4.42a.74.74,0,1,1,1-1l4.42,4.42a.74.74,0,0,1-.52,1.26Z"/><path class="cls-1" d="M45.15,21.2H42.2a.74.74,0,0,1,0-1.47h2.95a.74.74,0,1,1,0,1.47Z"/><path class="cls-1" d="M42.2,21.2a.74.74,0,0,1-.74-.74V17.52a.74.74,0,0,1,1.47,0v2.95A.74.74,0,0,1,42.2,21.2Z"/><path class="cls-1" d="M52.53,25.63a.74.74,0,0,1-.74-.74V14.57a.74.74,0,0,1,1.47,0V24.89A.74.74,0,0,1,52.53,25.63Z"/><path class="cls-1" d="M70.22,15.31H52.53a.74.74,0,1,1,0-1.47H70.22a.74.74,0,1,1,0,1.47Z"/><path class="cls-1" d="M74.64,25.63a.74.74,0,0,1-.74-.74V19a.74.74,0,0,1,1.47,0v5.9A.74.74,0,0,1,74.64,25.63Z"/><path class="cls-1" d="M74.64,19.73a.74.74,0,0,1-.52-.22L69.7,15.09a.74.74,0,1,1,1-1l4.42,4.42a.74.74,0,0,1-.52,1.26Z"/><path class="cls-1" d="M71.69,21.2H68.75a.74.74,0,0,1,0-1.47h2.95a.74.74,0,0,1,0,1.47Z"/><path class="cls-1" d="M68.75,21.2a.74.74,0,0,1-.74-.74V17.52a.74.74,0,0,1,1.47,0v2.95A.74.74,0,0,1,68.75,21.2Z"/><path class="cls-1" d="M50.29,94.93c-11.13,0-14.19-1.49-14.32-1.56a.74.74,0,0,1,.66-1.32s3.06,1.4,13.66,1.4S64,92.07,64,92.06a.74.74,0,0,1,.65,1.32C64.53,93.44,61.42,94.93,50.29,94.93Z"/><path class="cls-1" d="M36.31,93.46a.74.74,0,0,1-.74-.74V91.25a.74.74,0,0,1,1.47,0v1.47A.74.74,0,0,1,36.31,93.46Z"/><path class="cls-1" d="M64.32,93.46a.74.74,0,0,1-.74-.74V91.25a.74.74,0,0,1,1.47,0v1.47A.74.74,0,0,1,64.32,93.46Z"/><path class="cls-1" d="M64.32,92h-28a.74.74,0,0,1,0-1.47h28a.74.74,0,1,1,0,1.47Z"/><path class="cls-1" d="M36.31,92a.74.74,0,0,1-.52-1.26l1.47-1.47a.74.74,0,0,1,1,1l-1.47,1.47A.73.73,0,0,1,36.31,92Z"/><path class="cls-1" d="M64.32,92a.74.74,0,0,1-.52-.22l-1.47-1.47a.74.74,0,0,1,1-1l1.47,1.47A.74.74,0,0,1,64.32,92Z"/><path class="cls-1" d="M33.36,94.93H3.87a.74.74,0,1,1,0-1.47H33.36a.74.74,0,1,1,0,1.47Z"/><path class="cls-1" d="M96.76,94.93H67.27a.74.74,0,1,1,0-1.47H96.76a.74.74,0,0,1,0,1.47Z"/><path class="cls-1" d="M14.19,92a.74.74,0,0,1-.74-.74V88.3a.74.74,0,0,1,1.47,0v2.95A.74.74,0,0,1,14.19,92Z"/><path class="cls-1" d="M24.51,92H14.19a.74.74,0,1,1,0-1.47H24.51a.74.74,0,0,1,0,1.47Z"/><path class="cls-1" d="M24.51,92a.74.74,0,0,1-.74-.74V88.46a.74.74,0,1,1,1.47,0v2.79A.74.74,0,0,1,24.51,92Z"/><path class="cls-1" d="M74.64,92a.74.74,0,0,1-.74-.74V88.3a.74.74,0,0,1,1.47,0v2.95A.74.74,0,0,1,74.64,92Z"/><path class="cls-1" d="M85,92H74.64a.74.74,0,0,1,0-1.47H85A.74.74,0,0,1,85,92Z"/><path class="cls-1" d="M85,92a.74.74,0,0,1-.74-.74V88.46a.74.74,0,1,1,1.47,0v2.79A.74.74,0,0,1,85,92Z"/><path class="cls-1" d="M82,89H77.59a.74.74,0,0,1,0-1.47H82A.74.74,0,1,1,82,89Z"/><path class="cls-1" d="M21.56,89H17.14a.74.74,0,1,1,0-1.47h4.42a.74.74,0,1,1,0,1.47Z"/><path class="cls-1" d="M30.41,5H23a.74.74,0,1,1,0-1.47h7.37a.74.74,0,1,1,0,1.47Z"/><path class="cls-1" d="M23,6.46a.74.74,0,0,1-.74-.74V4.25a.74.74,0,0,1,1.47,0V5.72A.74.74,0,0,1,23,6.46Z"/><path class="cls-1" d="M26.72,6.46A.74.74,0,0,1,26,5.72V4.25a.74.74,0,0,1,1.47,0V5.72A.74.74,0,0,1,26.72,6.46Z"/><path class="cls-1" d="M30.41,6.46a.74.74,0,0,1-.74-.74V4.25a.74.74,0,0,1,1.47,0V5.72A.74.74,0,0,1,30.41,6.46Z"/><path class="cls-1" d="M77.59,5H70.22a.74.74,0,1,1,0-1.47h7.37a.74.74,0,1,1,0,1.47Z"/><path class="cls-1" d="M70.22,6.46a.74.74,0,0,1-.74-.74V4.25a.74.74,0,0,1,1.47,0V5.72A.74.74,0,0,1,70.22,6.46Z"/><path class="cls-1" d="M77.59,6.46a.74.74,0,0,1-.74-.74V4.25a.74.74,0,0,1,1.47,0V5.72A.74.74,0,0,1,77.59,6.46Z"/><path class="cls-1" d="M73.91,6.46a.74.74,0,0,1-.74-.74V4.25a.74.74,0,0,1,1.47,0V5.72A.74.74,0,0,1,73.91,6.46Z"/></svg>