<?xml version="1.0" encoding="utf-8"?>
<!-- Generator: Adobe Illustrator 20.1.0, SVG Export Plug-In . SVG Version: 6.00 Build 0)  -->
<svg version="1.1" id="Layer_1" xmlns="http://www.w3.org/2000/svg" xmlns:xlink="http://www.w3.org/1999/xlink" x="0px" y="0px"
	 viewBox="0 0 100 100" style="enable-background:new 0 0 100 100;" xml:space="preserve">
<style type="text/css">
	.st0{fill:#FFFFFF;}
</style>
<g>
	<path class="st0" d="M51.9,21.7c-0.5,0-1,0-1.4,0l0,0c-7.4,0-14.5,2.9-19.7,8.2s-8.2,12.3-8.2,19.7c0,9,4.3,17.5,11.7,22.6v13
		c0,2.7,2.2,4.9,4.9,4.9h3.5v0.1c-0.1,1.7,0.5,3.3,1.9,4.7c1.6,1.7,3.8,2.6,6,2.6c2.5,0,5-1.1,6.5-3c1-1.3,1.6-2.8,1.3-4.3h3.6
		c1.3,0,2.5-0.5,3.4-1.4c0.9-0.9,1.4-2.2,1.4-3.4v-13c7.7-5.5,12-14.4,11.7-23.7C77.7,34.2,66.1,22.4,51.9,21.7z M50.3,94.4
		c-2.6,0-4.8-2.1-4.8-3.8v-0.1h9.6C55.5,92.2,52.9,94.4,50.3,94.4z M43.2,55.5c1.7,0.3,3.3-0.3,4.4-1.8c1.6-2,1.9-4.8,0.7-6.9
		c-0.4-0.9-1.4-2.3-3.5-3.1c1.2-1,3-1.8,5.5-1.8c2.3,0,3.9,0.6,5.2,1.4c-1.9,0.7-2.9,2-3.4,2.9c-1.1,2.1-1,4.8,0.4,6.7
		c1.2,1.8,3.2,2.6,5.3,2.3c2.7-0.4,4.4-3.3,4.1-7c0-0.5-0.1-0.9-0.2-1.4l0,0c1,0.4,1.7,1,2.1,2.1c1.4,3.4-0.5,9.7-4.4,14.4
		c-3.5,4-4,8.1-4.1,9.7H45c-0.3-0.9-1.2-3.8-4.4-9.5c-3.7-6.5-5.2-12.4-3.6-15c0.2-0.3,0.6-1,2-1.6c0,0.2-0.1,0.4-0.1,0.7
		C38.5,51.7,40.3,54.9,43.2,55.5z M42.6,48.2c0-0.4,0.1-0.8,0.2-1.2c1,0.2,2,0.6,2.4,1.6c0.5,1,0.2,2.4-0.4,3.1
		c-0.2,0.3-0.5,0.5-0.8,0.5C43,51.8,42.4,50.1,42.6,48.2z M57.9,46.6c0.3,0.7,0.4,1.3,0.5,2.1c0.1,1.8-0.4,3.1-1.1,3.2
		c-0.7,0.1-1.3-0.1-1.8-0.7c-0.6-0.8-0.6-2.1-0.2-2.9C55.7,47.4,56.6,46.8,57.9,46.6z M63.6,75.9v3.9H37.2v-3.9H63.6z M63.6,85.3
		c0,0.9-0.8,1.8-1.8,1.8H38.9c-0.9,0-1.8-0.8-1.8-1.8v-1.8h26.4V85.3z M64.8,69.8c-0.7,0.5-1.2,1.4-1.2,2.4v0.9h-4.7
		c0.1-1.2,0.5-4.2,3.2-7.4c5-5.7,7.1-13.3,5.1-18.1c-1.2-2.8-3.7-4.4-7.2-4.7l0,0c-1.9-2.6-5.1-4.4-9.6-4.4c-4.8,0-8,2.1-9.7,4.9
		c-3.9,0.2-5.8,2.1-6.6,3.6c-3.2,5.5,1.4,14.8,3.6,18.6c2.3,3.9,3.3,6.4,3.8,7.7h-4.1v-0.9c0-0.9-0.4-1.9-1.2-2.4
		c-6.4-4.7-10.4-12-10.4-20.4c0-12.8,10.8-24.2,23.8-24.8c13.5-0.6,25.3,10.3,25.9,23.9C75.4,57.4,71.3,65.1,64.8,69.8z"/>
	<path class="st0" d="M49.5,16.4c0.2,0.1,0.5,0.1,0.8,0.1c1.1,0,2-0.9,2-2.1l-0.2-10c0-1.1-0.9-2-2.1-2c-1.1,0-2,0.9-2,2.1l0.2,10
		C48.2,15.5,48.8,16.2,49.5,16.4z"/>
	<path class="st0" d="M78.7,14.2l-6.4,7.3c-0.7,0.8-0.6,2.1,0.2,2.8c0.2,0.1,0.4,0.3,0.6,0.3c0.7,0.3,1.7,0.1,2.3-0.5l6.4-7.3
		c0.7-0.8,0.6-2.1-0.2-2.8C80.6,13.2,79.4,13.3,78.7,14.2z"/>
	<path class="st0" d="M27.9,25.5c0.6,0.2,1.3,0.2,2-0.3c0.8-0.7,1-2,0.3-2.8l-6.3-8.2c-0.7-0.8-2-1-2.8-0.3c-0.8,0.7-1,2-0.3,2.8
		l6.3,8.2C27.3,25.2,27.6,25.4,27.9,25.5z"/>
	<path class="st0" d="M16.5,40.7L5.9,36.6c-1-0.4-2.2,0.1-2.6,1.1c-0.4,1,0.1,2.2,1.1,2.6l10.7,4.2c1,0.4,2.2-0.1,2.6-1.1
		C18.1,42.4,17.5,41.2,16.5,40.7z"/>
	<path class="st0" d="M96.6,37.5c-0.5-1-1.7-1.4-2.7-0.9l-10,5c-1,0.5-1.4,1.7-0.9,2.7c0.2,0.4,0.6,0.8,1,0.9
		c0.5,0.2,1.1,0.2,1.7-0.1l10-5C96.7,39.7,97.2,38.6,96.6,37.5z"/>
</g>
</svg>
