<?xml version="1.0" encoding="utf-8"?>
<!-- Generator: Adobe Illustrator 20.1.0, SVG Export Plug-In . SVG Version: 6.00 Build 0)  -->
<svg version="1.1" id="Layer_1" xmlns="http://www.w3.org/2000/svg" xmlns:xlink="http://www.w3.org/1999/xlink" x="0px" y="0px"
	 viewBox="0 0 100 100" style="enable-background:new 0 0 100 100;" xml:space="preserve">
<style type="text/css">
	.st0{fill:#FFFFFF;}
</style>
<path class="st0" d="M4.6,98c0.7,0,1.3-0.3,1.9-0.8l12.4-12.4h1.4c12.7,0,24.7-5,33.7-14c0.8-0.8,1-1.9,0.6-2.9
	c-0.1-0.4-0.4-0.7-0.7-0.9c4.9-2.3,9.4-5.5,13.3-9.4c0.8-0.8,1-1.9,0.6-2.9c-0.1-0.4-0.4-0.7-0.7-0.9c4.9-2.3,9.4-5.5,13.3-9.4
	c0.8-0.8,1-1.9,0.6-2.9c-0.1-0.4-0.4-0.7-0.7-0.9c4.9-2.3,9.4-5.5,13.3-9.4c0.8-0.8,1-1.9,0.6-2.9c-0.4-1-1.4-1.6-2.4-1.6h-7.4
	c1.7-1.5,3.1-3.3,4.2-5.3l8.1-14.5c0.6-1,0.4-2.3-0.4-3.1c-0.8-0.8-2.1-1-3.1-0.4l-14.5,8.1c-2,1.1-3.8,2.6-5.3,4.2V8.3
	c0-1.1-0.6-2-1.6-2.4c-1-0.4-2.1-0.2-2.9,0.6c-3.9,3.9-7.1,8.4-9.4,13.3c-0.3-0.3-0.6-0.5-0.9-0.7c-1-0.4-2.1-0.2-2.9,0.6
	c-3.9,3.9-7.1,8.4-9.4,13.3c-0.3-0.3-0.6-0.5-0.9-0.7c-1-0.4-2.1-0.2-2.9,0.6c-3.9,3.9-7.1,8.4-9.4,13.3c-0.3-0.3-0.6-0.5-0.9-0.7
	c-1-0.4-2.1-0.2-2.9,0.6c-9,9-14,21-14,33.7v1.4L2.8,93.5c-1,1-1,2.7,0,3.7C3.3,97.7,4,98,4.6,98z M81.1,16l6.4-3.6L84,18.9
	c-2.2,4-6.1,6.7-10.5,7.6C74.4,22.1,77.1,18.2,81.1,16z M71.7,32h12.9c-6.1,4.4-13.1,7-20.6,7.7L71.7,32z M68,15.4v12.9L60.3,36
	C61,28.5,63.6,21.5,68,15.4z M58.5,45.2h1.4h11.5c-6.1,4.4-13.1,7-20.6,7.7L58.5,45.2z M54.8,28.6v11.5v1.4l-7.7,7.7
	C47.8,41.7,50.4,34.7,54.8,28.6z M45.3,58.4h1.4h11.5c-6.1,4.4-13.1,7-20.6,7.7L45.3,58.4z M41.6,41.8v11.5v1.4l-7.7,7.7
	C34.6,54.9,37.2,47.9,41.6,41.8z M32.1,71.6h1.4H45c-6.1,4.4-13.1,7-20.6,7.7L32.1,71.6z M28.4,55v11.5v1.4l-7.7,7.7
	C21.4,68.1,24,61.1,28.4,55z"/>
</svg>
