<?xml version="1.0" encoding="utf-8"?>
<!-- Generator: Adobe Illustrator 20.1.0, SVG Export Plug-In . SVG Version: 6.00 Build 0)  -->
<svg version="1.1" id="Layer_1" xmlns="http://www.w3.org/2000/svg" xmlns:xlink="http://www.w3.org/1999/xlink" x="0px" y="0px"
	 viewBox="0 0 100 100" style="enable-background:new 0 0 100 100;" xml:space="preserve">
<style type="text/css">
	.st0{fill:#FFFFFF;stroke:#FFFFFF;stroke-width:0.1598;stroke-linecap:round;stroke-linejoin:round;}
	.st1{fill:#FFFFFF;stroke:#FFFFFF;stroke-width:0.2134;}
	.st2{fill:#FFFFFF;stroke:#FFFFFF;stroke-width:0.2134;stroke-linecap:round;stroke-linejoin:round;}
</style>
<path class="st0" d="M30.9,3c34.8,31.6,34.3,31.1,65.9,65.9c0.7,0.8,1.4,1.9,1.4,3c0,1.2-0.6,2.4-1.4,3.3c-2,2.3-7.9,4.7-7.9,4.7
	l5.8-5.8c-0.3-0.4-0.5-0.6-0.9-1c-8.2,7.6-8.5,7.3-0.9-1c-0.3-0.3-0.6-0.7-0.9-1c-9.4,8.3-8,6.4-0.9-1c-0.3-0.3-0.6-0.7-0.9-1
	c-8.6,8-8.6,7.4-0.9-1c-0.3-0.3-0.6-0.7-0.9-1c-11,9.7-6.7,5.1-0.9-1l-0.9-1c-9.7,9.1-7.9,6.5-0.9-1l-0.9-1c-9.3,8.6-8.5,7.2-0.9-1
	c-0.3-0.3-0.6-0.6-0.9-1c-8.3,7.7-9.4,8.2-0.9-1c-0.3-0.3-0.6-0.6-1-1c-8,7.5-9.7,8.5-0.9-0.9c-0.3-0.3-0.6-0.6-1-1
	c-9.5,8.9-8.3,7-1-0.9c-0.3-0.3-0.6-0.6-0.9-0.9c-8.7,8-9.1,7.8-1-0.9c-0.3-0.3-0.6-0.6-1-0.9c-9.6,8.9-8.1,6.8-1-0.9l-1-0.9
	c-8.2,7.5-9.4,8.2-1-0.9c-0.3-0.3-0.7-0.6-1-0.9c-8.2,7.6-9.2,8-1-0.9l-1-0.9c-7.9,7.3-9.4,8.1-1-0.9c-0.3-0.3-0.6-0.6-1-0.9
	c-9.3,8.6-8,6.6-1-0.9c-0.3-0.3-0.6-0.6-1-0.9c-8.4,7.7-8.7,7.4-1-0.9c-0.3-0.3-0.7-0.6-1-0.9c-9.4,8.7-7.5,6.2-1-0.9
	c-0.3-0.3-0.6-0.6-1-0.9c-8.8,8.1-7.9,6.6-1-0.9l-0.5-0.5c-0.1-0.1-0.2-0.2-0.3-0.3c-9.2,8.8-7,6.1-0.6-0.7
	c-0.2-0.2-0.4-0.4-0.6-0.6c-7.4,7-9,8.1-0.6-0.7c-0.2-0.2-0.4-0.4-0.6-0.7c-8.4,8-8.1,7.3-0.6-0.7c-0.2-0.2-0.4-0.4-0.6-0.7
	c-9.2,8.7-7.4,6.6-0.6-0.7c-0.2-0.2-0.4-0.4-0.6-0.6c-7.9,7.5-8.8,8-0.6-0.7c-0.2-0.2-0.4-0.4-0.6-0.7c-9.9,9.5-6.8,5.9-0.6-0.7
	l-0.6-0.6c-7.3,6.9-9.5,8.8-0.6-0.6L51.3,30c-8.3,7.9-8.7,7.9-0.6-0.7l-0.6-0.7c-6.3,5.9-10.6,9.8-0.6-0.7c-0.2-0.2-0.4-0.4-0.6-0.6
	c-13.2,12.4-2.7,1.8-0.6-0.7c-0.2-0.2-0.4-0.4-0.6-0.6C42.5,30.9,36,37.2,47,25.5c-0.2-0.2-0.4-0.4-0.6-0.6
	c-6.1,5.7-10.9,10.2-0.6-0.6l-0.6-0.7c-5.6,5.3-11.3,10.6-0.6-0.6c-0.2-0.2-0.4-0.4-0.6-0.6c-11.4,10.9-5.7,4.7-0.6-0.6
	c-0.2-0.2-0.4-0.4-0.6-0.6c-9.2,8.9-8.2,7.2-0.6-0.6c-0.2-0.2-0.4-0.4-0.6-0.6c-6.5,6.2-10.7,9.9-0.6-0.6c-0.2-0.2-0.4-0.4-0.6-0.6
	c-7.5,7.1-9.9,9.1-0.6-0.6c-0.2-0.2-0.4-0.4-0.6-0.6c-8.9,8.5-8.5,7.7-0.6-0.6c-0.2-0.2-0.4-0.4-0.6-0.6c-9,8.6-8.4,7.5-0.6-0.6
	c-0.2-0.2-0.4-0.4-0.6-0.6c-10.2,9.7-7.1,6.2-0.7-0.6c-0.2-0.2-0.4-0.4-0.6-0.6c-8.1,7.7-9.2,8.4-0.6-0.6c-0.2-0.2-0.4-0.4-0.6-0.6
	c-4.4,4-11.9,11.3-0.6-0.6c-0.2-0.2-0.4-0.4-0.7-0.6c-7.3,6.9-9.7,8.9-0.7-0.6c-0.2-0.2-0.4-0.4-0.7-0.6c-10.3,9.8-6.5,5.6-0.7-0.6
	C30.2,9,30,8.8,29.8,8.6c-8.9,8.5-7.9,7-0.7-0.6c-0.2-0.2-0.4-0.4-0.7-0.6c-9.5,9-7.1,6.3-0.7-0.6c-0.2-0.2-0.4-0.4-0.7-0.6
	c-8.5,8.1-8,7.1-0.7-0.6C26,5.2,26.1,5.4,25.7,5l-5.8,5.8c0,0,2.4-5.9,4.7-7.9c0.9-0.8,2.1-1.4,3.3-1.4C29,1.6,30.1,2.2,30.9,3
	L30.9,3z"/>
<path class="st1" d="M15.9,38.5c2,1.7,6.2,6.2,8.7,6.8c2.4,0.7,2.6,0,4.1-0.5 M1.7,20.6l26.9,24.2l7.8,5 M33.7,52.6l2.7-2.7
	L3.5,20.6c0,0-1.4-0.4-1.8,0c-0.4,0.4,0,1.8,0,1.8l29.2,32.9L33.7,52.6z"/>
<path class="st2" d="M72.5,76.8c-4.1-4.1-9.1-1.8-11.4-2.3c-4.9-2.4-11-11-11-11L34.6,48c-0.9-0.9-3.2-2.3-5.5,0
	c-2.3,2.3-0.9,4.6,0,5.5L44.7,69c3.6,3.7,8.2,11.5,7.3,14.6c-2.3,3.2-2.7,5.5-1.4,9.6c1.4,4.1,8.2,9.1,11.4,1.4l0.5-1.4
	c0.5-1.3,0.7-3,2.3-3.2l-1.4-1.4l0.5-0.5c0.5-0.5-0.5-1.4-0.9-0.9l-0.5,0.5l-1.4-1.4c-2.8-2.8-4.1-3.2-5.9-5c-5-5.7-7.3-12.8-7.8-15
	c1.1-0.3,2.7,0.2,6,3.2l6.8,5.9c0.9,2.3,1.1,4.1,1.3,5.6c0.1,1.5,0.1,2.6,0.6,3.5l3.2,3.2c1.8,0.9,6.2,1.9,8.2,0.9l0.9-0.9l1.6,1.6
	c0,0,0.3,1.1,0.5,0.9l0.9-0.9c0.2-0.2-0.9-0.5-0.9-0.5l-1.6-1.6l0.9-0.9C76.1,82.3,76.6,80.9,72.5,76.8z M72.2,78.1
	c2.8,2.8,3.4,6.7,1.4,8.7v0c-2,2-5.9,1.4-8.7-1.4l0,0c-2.8-2.8-3.4-6.7-1.4-8.7C65.5,74.7,69.4,75.3,72.2,78.1z M32.8,49
	c0.8,0.8,0.8,2,0,2.7c-0.8,0.8-2,0.8-2.7,0c-0.8-0.8-0.8-2,0-2.7C30.8,48.2,32,48.2,32.8,49z M33.2,50.3h-3.7H33.2z M58.6,85.8
	c0.9,0.9,1.6,2.1,2.1,3.4c1.4,3.7,0.4,7.5-2.2,8.5c-2.6,0.9-5.8-1.3-7.2-5c-1.4-3.7-0.4-7.5,2.2-8.5C55.2,83.6,57.1,84.2,58.6,85.8z
	"/>
</svg>
