<?xml version="1.0" encoding="utf-8"?>
<!-- Generator: Adobe Illustrator 20.1.0, SVG Export Plug-In . SVG Version: 6.00 Build 0)  -->
<svg version="1.1" id="Layer_1" xmlns="http://www.w3.org/2000/svg" xmlns:xlink="http://www.w3.org/1999/xlink" x="0px" y="0px"
	 viewBox="0 0 100 100" style="enable-background:new 0 0 100 100;" xml:space="preserve">
<style type="text/css">
	.st0{fill:#FFFFFF;}
</style>
<path class="st0" d="M87.5,47.3c-1.4-0.2-2.7-0.1-3.9,0.1l-1.7-5.8L93,28.6c0.9-1.2,0-2.3-1.5-2.3H25.4c-1.5,0-1.8,1.3-1.5,2.8
	l0.7,2.6L16.8,25c-0.2-0.2-0.6-0.3-0.9-0.3h-9c-0.7,0-1.3,0.6-1.3,1.3c0,0.7,0.6,1.3,1.3,1.3h8.5l10.3,8.9l1.8,7.2L11.5,29.5
	c-0.2-0.2-0.5-0.3-0.9-0.3h-9c-0.7,0-1.3,0.6-1.3,1.3c0,0.7,0.6,1.3,1.3,1.3h8.5l18.6,16.5c0,0,0,22.6,0,22.6c0,0.7,0.8,1.7,1.5,1.7
	h5.3c0.5,0,0.9-0.3,1.2-0.7l1.4-2.7H43c0.5,0,0.9-0.3,1.1-0.7l7.4-14.6L73,58.8c0,0,0,0.1,0,0.1c-0.8,7.2,4.4,13.7,11.6,14.5
	c7.2,0.8,13.7-4.4,14.5-11.6C99.9,54.6,94.7,48.1,87.5,47.3z M36.4,67.1L34.8,70h-3.2V49.4l4.8,1.2V67.1z M39.2,51.1l4.8,1.1
	l-4.8,9.5V51.1z M42.2,66.5h-2.6l7-13.8l2.3,0.5L42.2,66.5z M70.2,55.4c0.1-0.1,0.3-0.3,0.4-0.4l9.8-11.6l1.3,4.5
	c-3.8,1.3-6.8,4.3-8.1,8.2L70.2,55.4z M83.8,55.1l1.1,3.6l-4-0.9C81.6,56.6,82.6,55.6,83.8,55.1z M91.7,61c-0.4,3.1-3.2,5.4-6.3,5
	c-2.9-0.3-5-2.8-5.1-5.6l5.4,1.2c0.1,0,0.2,0,0.3,0c0.6,0,1.2-0.4,1.3-1c0.1-0.9-1.6-6-1.6-6c0.3,0,0.7,0,1,0
	C89.8,55,92.1,57.9,91.7,61z"/>
</svg>
