<?xml version="1.0" encoding="utf-8"?>
<!-- Generator: Adobe Illustrator 20.1.0, SVG Export Plug-In . SVG Version: 6.00 Build 0)  -->
<svg version="1.1" id="Layer_1" xmlns="http://www.w3.org/2000/svg" xmlns:xlink="http://www.w3.org/1999/xlink" x="0px" y="0px"
	 viewBox="0 0 100 100" style="enable-background:new 0 0 100 100;" xml:space="preserve">
<style type="text/css">
	.st0{fill:#FFFFFF;}
</style>
<path class="st0" d="M92.9,4.9l-13,13c-2-1.3-4.8-1-6.5,0.8l-2,2l-1.5-1.5c-1.4-1.4-3.1-2-5-2c-1.9,0-3.6,0.8-5,2L16.5,62.7
	l-2.3-2.3c-0.5-0.5-1.3-0.5-1.8,0s-0.5,1.3,0,1.8l7.8,7.8L8.1,82.1l-2-2c-0.5-0.5-1.3-0.5-1.8,0s-0.5,1.3,0,1.8l12.8,12.8
	c0.3,0.3,0.6,0.4,0.9,0.4s0.6-0.1,0.9-0.4c0.5-0.5,0.5-1.3,0-1.8L17,91l12.1-12.1l8,8c0.3,0.3,0.6,0.4,0.9,0.4s0.6-0.1,0.9-0.4
	c0.5-0.5,0.5-1.3,0-1.8l-2.4-2.4l13.1-13.3l0,0l0,0L80,39.2c2.8-2.8,2.8-7.3,0-10L78.8,28l2-2c1.8-1.8,2-4.5,0.8-6.5l13-13
	c0.5-0.5,0.5-1.3,0-1.8S93.4,4.4,92.9,4.9z M15.3,89.2L10,84l12.1-12.1l5.3,5.3L15.3,89.2z M18.3,64.5l12.3-12.3l11.3,11.3L35,70.2
	c-0.5,0.5-0.5,1.3,0,1.8c0.3,0.3,0.6,0.4,0.9,0.4s0.6-0.1,0.9-0.4l6.8-6.8l3.5,3.5L34.8,81L18.3,64.5z M78.2,37.4L48.8,66.8
	l-3.5-3.5l23.8-23.8c0.5-0.5,0.5-1.3,0-1.8c-0.5-0.5-1.3-0.5-1.8,0L43.5,61.6L32.3,50.3l29.4-29.4c1.8-1.8,4.8-1.8,6.4,0l10,10
	c0.9,0.9,1.4,2,1.4,3.3C79.6,35.4,79.1,36.6,78.2,37.4z M79.1,24.4l-2,2l-4-4l2-2c1.1-1.1,2.9-1.1,4,0
	C80.2,21.5,80.2,23.3,79.1,24.4z"/>
</svg>
