<?xml version="1.0" encoding="utf-8"?>
<!-- Generator: Adobe Illustrator 20.1.0, SVG Export Plug-In . SVG Version: 6.00 Build 0)  -->
<svg version="1.1" id="Layer_1" xmlns="http://www.w3.org/2000/svg" xmlns:xlink="http://www.w3.org/1999/xlink" x="0px" y="0px"
	 viewBox="0 0 100 100" style="enable-background:new 0 0 100 100;" xml:space="preserve">
<style type="text/css">
	.st0{fill:#FFFFFF;stroke:#FFFFFF;stroke-width:0.9602;stroke-miterlimit:10;}
	.st1{fill:#FFFFFF;stroke:#FFFFFF;stroke-width:0.9647;stroke-miterlimit:10;}
	.st2{fill:#FFFFFF;stroke:#FFFFFF;stroke-width:0.9877;stroke-miterlimit:10;}
	.st3{fill:#FFFFFF;stroke:#FFFFFF;stroke-width:0.9773;stroke-miterlimit:10;}
	.st4{fill:#FFFFFF;stroke:#FFFFFF;stroke-miterlimit:10;}
</style>
<line class="st0" x1="22.8" y1="55" x2="47.6" y2="42.3"/>
<line class="st1" x1="31.4" y1="54.7" x2="47.6" y2="42.3"/>
<line class="st2" x1="52.7" y1="42.7" x2="69.3" y2="55"/>
<line class="st3" x1="53.1" y1="42.5" x2="78.7" y2="55"/>
<line class="st4" x1="47.3" y1="28.7" x2="47.3" y2="42.8"/>
<line class="st4" x1="52.9" y1="28.8" x2="52.9" y2="43.1"/>
<line class="st4" x1="50" y1="16" x2="50" y2="46.1"/>
<path class="st4" d="M51,16.1c1.9-0.8,3.5-0.9,4.5-0.8c1.8,0.1,2.7,0.8,5.1,1.3c1.7,0.3,2.9,0.3,3.8,0.3c0,2.4,0,4.7,0,7.2
	c-2.9,1-4.9,0.6-6.1,0.1c-1.3-0.5-1.8-1.4-3.3-1.7c-1.5-0.3-2.9,0.3-3.8,0.8C51.2,20.9,51.2,18.6,51,16.1z"/>
<path class="st4" d="M83.6,56.9v-2.6H54.1v2.6h-1.4v4.4h-4.9v-4.4h-1.4v-2.6H16.9v2.6H2v21.4h15h29.5h1.2h0.3h4.9h0.3h1.3h29.5H98
	V56.9H83.6z M10.9,73.9H7.7V60.6h3.2V73.9z M17.1,73.9h-3.2V60.6h3.2V73.9z M25,73.9h-3.2V59.5H25V73.9z M30.7,73.9h-3.2V59.5h3.2
	V73.9z M36.3,73.9h-3.2V59.5h3.2V73.9z M42.1,73.9h-3.2V59.5h3.2V73.9z M60.9,73.9h-3.2V59.5h3.2V73.9z M66.7,73.9h-3.2V59.5h3.2
	V73.9z M72.2,73.9H69V59.5h3.2V73.9z M77.8,73.9h-3.2V59.5h3.2V73.9z M86.8,73.9h-3.2V60.6h3.2V73.9z M92.2,73.9h-3.2V60.6h3.2V73.9
	z"/>
</svg>
