<?xml version="1.0" encoding="utf-8"?>
<!-- Generator: Adobe Illustrator 20.1.0, SVG Export Plug-In . SVG Version: 6.00 Build 0)  -->
<svg version="1.1" id="Layer_1" xmlns="http://www.w3.org/2000/svg" xmlns:xlink="http://www.w3.org/1999/xlink" x="0px" y="0px"
	 viewBox="0 0 100 100" style="enable-background:new 0 0 100 100;" xml:space="preserve">
<style type="text/css">
	.st0{fill:#FFFFFF;}
</style>
<g transform="translate(0,-952.36216)">
	<path class="st0" d="M43.6,967.4L1.1,992l55.4,32l1-0.6l41.5-24L43.6,967.4z M43.6,972.3l47,27.1l-34.2,19.8L9.4,992
		C9.4,992,43.6,972.3,43.6,972.3z M45.7,978.8l-5.3,3.1l3.7,2.2l5.3-3.1L45.7,978.8z M53.2,983.1l-12.8,7.4l3.7,2.2l12.8-7.4
		L53.2,983.1L53.2,983.1z M37,983.9l-4,2.3l3.7,2.2l4-2.3C40.7,986,37,983.9,37,983.9z M60.6,987.4l-14.2,8.2l3.7,2.2l14.2-8.2
		L60.6,987.4z M29.5,988.2l-8.7,5l3.7,2.2l7.5,4.3l8.7-5l-3.7-2.2l-3.7-2.2L29.5,988.2L29.5,988.2z M68.1,991.7l-5.9,3.4l3.7,2.2
		l5.9-3.4L68.1,991.7z M75.5,996l-24.9,14.4l3.7,2.2l24.9-14.4L75.5,996z M4.7,996.6l-3.6,2.1l55.4,32l1-0.6l41.5-24l-3.6-2.1
		l-37.9,21.9l-1,0.6L4.7,996.6L4.7,996.6z M58.8,997.1l-15.6,9l3.7,2.2l15.6-9L58.8,997.1L58.8,997.1z M43,997.6l-7.3,4.2l3.7,2.2
		l7.3-4.2L43,997.6z M4.7,1003.3l-3.6,2.1l55.4,32l1-0.6l41.5-24l-3.6-2.1l-37.9,21.9l-1,0.6L4.7,1003.3L4.7,1003.3z"/>
</g>
</svg>
