<?xml version="1.0" encoding="utf-8"?>
<!-- Generator: Adobe Illustrator 20.1.0, SVG Export Plug-In . SVG Version: 6.00 Build 0)  -->
<svg version="1.1" id="Layer_1" xmlns="http://www.w3.org/2000/svg" xmlns:xlink="http://www.w3.org/1999/xlink" x="0px" y="0px"
	 viewBox="0 0 100 100" style="enable-background:new 0 0 100 100;" xml:space="preserve">
<style type="text/css">
	.st0{fill:#FFFFFF;}
</style>
<g>
	<path class="st0" d="M96.1,91.4V73.7c0-0.2,0-0.3-0.1-0.4c0,0,0-0.1,0-0.1l0,0c0,0,0,0,0,0l-9.9-26.4V22.9c0-0.9-0.7-1.5-1.5-1.5
		H71.1v-3h5.6c0.9,0,1.5-0.7,1.5-1.5V5.7c0-0.9-0.7-1.5-1.5-1.5H53.2c-0.9,0-1.5,0.7-1.5,1.5v11.2c0,0.9,0.7,1.5,1.5,1.5h5.6v3H40.4
		v-8c0-0.9-0.7-1.5-1.5-1.5h-1.9l-2.3-3.3c-0.3-0.4-0.8-0.7-1.3-0.7c-0.5,0-1,0.2-1.3,0.7l-1.5,2.1l-1.5-2.1c-0.6-0.8-2-0.8-2.5,0
		l-2.7,4c-0.2,0.3-0.3,0.6-0.3,0.9v8h-8.1c-0.9,0-1.5,0.7-1.5,1.5v23.8L4,73.1c0,0,0,0,0,0l0,0c0,0,0,0.1,0,0.1
		c0,0.1-0.1,0.3-0.1,0.4v17.8c0,0.9,0.7,1.5,1.5,1.5h89.2C95.4,93,96.1,92.3,96.1,91.4z M54.8,15.3V7.2h20.4v8.1h-5.6h-9.1
		L54.8,15.3L54.8,15.3z M68,18.4v3h-6v-3H68z M26.7,13.8l1.2-1.7l1.5,2.1c0.6,0.8,2,0.8,2.5,0l1.5-2.1l1.5,2.1
		c0.3,0.4,0.8,0.7,1.3,0.7h1.2v20.3H26.7V13.8z M17,24.4h6.6v10.7h-1.3c-0.9,0-1.5,0.7-1.5,1.5c0,0.9,0.7,1.5,1.5,1.5h2.9h13.7h2.8
		c0.9,0,1.5-0.7,1.5-1.5c0-0.9-0.7-1.5-1.5-1.5h-1.2V24.4h20h9.1H83v21H17V24.4z M16.5,48.5l33.5,0l33.5,0l8.9,23.6H7.6L16.5,48.5z
		 M93,89.9H6.9V75.2H93V89.9z"/>
	<circle class="st0" cx="50" cy="83.2" r="3.4"/>
	<path class="st0" d="M13.8,84.7h28.4c0.9,0,1.5-0.7,1.5-1.5c0-0.9-0.7-1.5-1.5-1.5H13.8c-0.9,0-1.5,0.7-1.5,1.5
		C12.2,84,12.9,84.7,13.8,84.7z"/>
	<path class="st0" d="M57.8,84.7h28.4c0.9,0,1.5-0.7,1.5-1.5c0-0.9-0.7-1.5-1.5-1.5H57.8c-0.9,0-1.5,0.7-1.5,1.5
		C56.3,84,57,84.7,57.8,84.7z"/>
	<path class="st0" d="M28.2,55l-5,0c0,0,0,0,0,0c-0.8,0-1.5,0.7-1.5,1.5c0,0.8,0.7,1.5,1.5,1.5l5,0c0,0,0,0,0,0
		c0.8,0,1.5-0.7,1.5-1.5C29.8,55.7,29.1,55,28.2,55z"/>
	<path class="st0" d="M40.4,55l-5,0c-0.8-0.2-1.5,0.7-1.5,1.5c0,0.9,0.7,1.5,1.5,1.5l5,0c0,0,0,0,0,0c0.8,0,1.5-0.7,1.5-1.5
		C41.9,55.7,41.2,55,40.4,55z"/>
	<path class="st0" d="M52.5,55.1l-5,0c0,0,0,0,0,0c-0.9,0-1.5,0.7-1.5,1.5c0,0.9,0.7,1.5,1.5,1.5l5,0c0,0,0,0,0,0
		c0.9,0,1.5-0.7,1.5-1.5C54.1,55.8,53.4,55.1,52.5,55.1z"/>
	<path class="st0" d="M64.7,55.1h-5c-0.9,0-1.5,0.7-1.5,1.5s0.7,1.5,1.5,1.5h5c0.9,0,1.5-0.7,1.5-1.5S65.5,55.1,64.7,55.1z"/>
	<path class="st0" d="M76.8,55.1L76.8,55.1l-5,0c-0.9,0-1.5,0.7-1.5,1.5c0,0.8,0.7,1.5,1.5,1.5h0l5,0c0.9,0,1.5-0.7,1.5-1.5
		C78.4,55.7,77.7,55.1,76.8,55.1z"/>
	<path class="st0" d="M28.2,62.5l-5,0c-1,0-1.5,0.7-1.5,1.5c0,0.9,0.7,1.5,1.5,1.5l5,0c0,0,0,0,0,0c0.8,0,1.5-0.7,1.5-1.5
		C29.8,63.2,29.1,62.5,28.2,62.5z"/>
	<path class="st0" d="M40.4,62.5l-5,0c-0.8,0-1.5,0.7-1.5,1.5c0,0.9,0.7,1.5,1.5,1.5l5,0c0,0,0,0,0,0c0.8,0,1.5-0.7,1.5-1.5
		C41.9,63.2,41.2,62.5,40.4,62.5z"/>
	<path class="st0" d="M52.5,62.5l-5,0c-0.9,0-1.5,0.7-1.5,1.5c0,0.9,0.7,1.5,1.5,1.5l5,0c0.9,0,1.5-0.7,1.5-1.5
		C54.1,63.2,53.4,62.5,52.5,62.5z"/>
	<path class="st0" d="M64.7,62.5h-5c-0.9,0-1.5,0.7-1.5,1.5c0,0.9,0.7,1.5,1.5,1.5h5c0.9,0,1.5-0.7,1.5-1.5
		C66.2,63.2,65.5,62.5,64.7,62.5z"/>
	<path class="st0" d="M76.8,62.5L76.8,62.5l-5,0c-0.9,0-1.5,0.7-1.5,1.5c0,0.8,0.7,1.5,1.5,1.5h0l5,0c0.9,0,1.5-0.7,1.5-1.5
		C78.4,63.2,77.7,62.5,76.8,62.5z"/>
	<path class="st0" d="M76.8,27.5H50.7c-0.9,0-1.5,0.7-1.5,1.5v11.7c0,0.9,0.7,1.5,1.5,1.5h26.1c0.9,0,1.5-0.7,1.5-1.5V29.1
		C78.4,28.2,77.7,27.5,76.8,27.5z M75.3,39.2H52.2v-8.6h23.1V39.2z"/>
	<circle class="st0" cx="56.2" cy="34.9" r="1.8"/>
	<circle class="st0" cx="63.7" cy="34.9" r="1.8"/>
	<circle class="st0" cx="71.3" cy="34.9" r="1.8"/>
	<path class="st0" d="M34,18h-4.1c-0.9,0-1.5,0.7-1.5,1.5c0,0.9,0.7,1.5,1.5,1.5H34c0.9,0,1.5-0.7,1.5-1.5C35.5,18.7,34.8,18,34,18z
		"/>
	<path class="st0" d="M34,23.6h-4.1c-0.9,0-1.5,0.7-1.5,1.5s0.7,1.5,1.5,1.5H34c0.9,0,1.5-0.7,1.5-1.5S34.8,23.6,34,23.6z"/>
	<path class="st0" d="M34,29.2h-4.1c-0.9,0-1.5,0.7-1.5,1.5c0,0.9,0.7,1.5,1.5,1.5H34c0.9,0,1.5-0.7,1.5-1.5
		C35.5,29.9,34.8,29.2,34,29.2z"/>
	<path class="st0" d="M73.6,11.2c0-0.9-0.7-1.5-1.5-1.5H57.9c-0.9,0-1.5,0.7-1.5,1.5c0,0.9,0.7,1.5,1.5,1.5h14.1
		C72.9,12.8,73.6,12.1,73.6,11.2z"/>
</g>
</svg>
