<?xml version="1.0" encoding="utf-8"?>
<!-- Generator: Adobe Illustrator 20.1.0, SVG Export Plug-In . SVG Version: 6.00 Build 0)  -->
<svg version="1.1" id="Layer_1" xmlns="http://www.w3.org/2000/svg" xmlns:xlink="http://www.w3.org/1999/xlink" x="0px" y="0px"
	 viewBox="0 0 100 100" style="enable-background:new 0 0 100 100;" xml:space="preserve">
<style type="text/css">
	.st0{fill:#FFFFFF;}
</style>
<g transform="translate(0,-952.36218)">
	<path class="st0" d="M14.9,959.2v64.2c8.6,0,19.4,1.1,34.3,8.3v-62.1C38.2,963.4,23.5,959.2,14.9,959.2L14.9,959.2z M85.7,959.2
		c-8.6,0-23.3,4.2-34.3,10.4v62.1c14.9-7.3,25.7-8.3,34.3-8.3V959.2L85.7,959.2z M8.3,965.9v66.4c8.9-2.2,25.4-1.1,42,6.6
		c14.4-7.7,33.2-8.9,42-6.6v-66.4c-1.5,0-3,0-4.4,0.3v57.2c0,1.2-1.1,2.2-2.2,2.2c-8.7,0-19.2,1-34.4,8.6c-0.6,0.3-1.4,0.3-2,0
		c-15.2-7.6-25.7-8.6-34.4-8.6c-1.2,0-2.2-1.1-2.2-2.2v-57.2C11.2,965.9,9.7,965.9,8.3,965.9L8.3,965.9z M1.6,972.5v70.8
		c8.9-4.4,32.1-5.5,48.7,2.2c14.4-7.7,39.8-6.6,48.7-2.2v-70.8c-1.5,0-3,0-4.4,0.3v59.4c0,1.3-1.5,2.5-2.8,2.1
		c-8-2-26.7-0.9-40.5,6.5c-0.6,0.3-1.4,0.3-2,0c-16.2-7.5-32.5-8.5-40.6-6.5c-1.3,0.3-2.8-0.8-2.8-2.1v-59.4
		C4.6,972.5,3.1,972.5,1.6,972.5L1.6,972.5z"/>
</g>
</svg>
